# xmcd CD database file
#
# Track frame offsets:
#	150
#	13827
#	39287
#	51371
#	62544
#	80896
#	89960
#	104705
#	116836
#	126734
#	136151
#	152794
#	162300
#
# Disc length: 2325 seconds
#
# Revision: 2
# Processed by: cddbd v1.5.1PL2 Copyright (c) Steve Scherf et al.
# Submitted via: CDex 1.51
#
DISCID=c209130d
DTITLE=Arsen Dedic - Kinoteka
DYEAR=2002
DGENRE=Chanson
TTITLE0=Zivot se trosi kao kreda
TTITLE1=Kuca za ptice
TTITLE2=Le Meteque
TTITLE3=Spaliti zemlju
TTITLE4=Never more
TTITLE5=Pont neuf
TTITLE6=Mrtvo lisce
TTITLE7=Nisam ti dospio reci
TTITLE8=Paprena
TTITLE9=Posljedni tango u Djevrskama
TTITLE10=Na Balkonu
TTITLE11=Politika i ljubav
TTITLE12=Sve te vodilo k meni
EXTD=YEAR: 2002
EXTT0=
EXTT1=
EXTT2=
EXTT3=
EXTT4=
EXTT5=
EXTT6=
EXTT7=
EXTT8=
EXTT9=
EXTT10=
EXTT11=
EXTT12=
PLAYORDER=
